#!OML:ASF I:\salsa\salsa 7_09\Patient 1\Session 1\dancerfemale.ASF
:FULLY-SPECIFIED
:DEGREES
1163
root -10.0272 15.6451 5.747 -213.839 65.1871 -216.14
lowerback 14.541 -0.854561 -9.44587
upperback -3.28293 -3.21755 -3.83725
thorax -11.5793 -0.958495 1.85755
lowerneck 7.86323 -1.05191 -11.233
upperneck -5.14293 -1.52919 14.8482
head -2.59779 -1.07014 6.49435
rclavicle 1.05573e-014 7.95139e-016
rhumerus -41.7855 10.9572 -86.0132
rradius 93.1865
rwrist -56.2318
rhand 8.13705 38.6197
rfingers 7.12502
rthumb 33.3573 11.6956
lclavicle 1.05573e-014 7.95139e-016
lhumerus -16.1909 -5.92537 91.3441
lradius 116.225
lwrist -34.05
lhand 2.34843 43.7167
lfingers 7.12502
lthumb 27.8378 431.674
rfemur -35.569 -0.552162 4.70154
rtibia 66.771
rfoot -15.5182 -6.03329
rtoes -25.3432
lfemur -9.81721 7.34315 -38.558
ltibia 32.517
lfoot -23.4424 -0.913542
ltoes -12.5265
1164
root -10.0731 15.6725 5.76767 -214.388 66.4569 -216.839
lowerback 14.3787 -1.48298 -8.22436
upperback -3.44468 -3.87324 -4.37398
thorax -11.7108 -1.36424 0.737506
lowerneck 6.97589 -0.408032 -10.9158
upperneck -4.17621 -0.599992 15.2199
head -2.29479 -0.576379 6.50071
rclavicle -3.29672e-014 7.95139e-015
rhumerus -41.0409 13.4193 -86.4922
rradius 93.5429
rwrist -56.2258
rhand 8.36806 38.0101
rfingers 7.12502
rthumb 33.5769 11.1334
lclavicle -3.29672e-014 7.95139e-015
lhumerus -19.454 -7.1574 92.2412
lradius 115.32
lwrist -33.9047
lhand 2.93919 42.6884
lfingers 7.12502
lthumb 28.4024 430.553
rfemur -34.3772 -1.26037 5.21757
rtibia 67.9116
rfoot -15.5791 -7.79327
rtoes -23.2117
lfemur -10.2073 7.28903 -38.1245
ltibia 32.4133
lfoot -23.5457 0.0443463
ltoes -11.7196
1165
root -10.1112 15.6971 5.78028 -215.165 68.0761 -217.678
lowerback 14.0338 -1.96433 -6.86124
upperback -3.44245 -4.26958 -4.77752
thorax -11.5981 -1.67101 -0.379839
lowerneck 6.09615 0.169881 -10.3962
upperneck -3.4654 0.241878 15.2348
head -2.05546 -0.118555 6.37104
rclavicle -1.60911e-015 -4.10739e-014
rhumerus -39.994 15.8688 -86.6871
rradius 93.95
rwrist -56.6033
rhand 8.25806 37.6276
rfingers 7.12502
rthumb 33.4724 10.7282
lclavicle -1.60911e-015 -4.10739e-014
lhumerus -22.4647 -7.99295 93.1837
lradius 113.966
lwrist -33.5603
lhand 2.69087 41.4176
lfingers 7.12502
lthumb 28.1651 429.322
rfemur -32.8986 -2.06956 5.77692
rtibia 68.4479
rfoot -15.7045 -9.42878
rtoes -23.1105
lfemur -10.6226 7.17245 -37.5369
ltibia 32.5276
lfoot -23.7074 1.39766
ltoes -10.8079
1166
root -10.1384 15.7165 5.79762 -216.655 69.848 -219.431
lowerback 13.6559 -2.37286 -5.56732
upperback -3.60452 -4.60675 -5.2518
thorax -11.6864 -1.94041 -1.55662
lowerneck 5.11701 0.75134 -9.78017
upperneck -2.52168 1.06091 15.175
head -1.72374 0.340441 6.20709
rclavicle 8.8133e-015 -1.07344e-014
rhumerus -39.3319 17.9706 -87.1406
rradius 94.6116
rwrist -57.007
rhand 8.2148 37.2148
rfingers 7.12502
rthumb 33.4312 10.3066
lclavicle 8.8133e-015 -1.07344e-014
lhumerus -25.8784 -8.32221 93.7563
lradius 112.342
lwrist -32.9745
lhand 1.06578 41.2383
lfingers 7.12502
lthumb 26.6108 429.388
rfemur -31.4387 -2.7077 6.08162
rtibia 68.3844
rfoot -15.8325 -10.7787
rtoes -22.5603
lfemur -11.2747 7.32985 -37.0692
ltibia 32.8084
lfoot -23.8432 2.78717
ltoes -11.4164
1167
root -10.1614 15.7286 5.82405 -219.146 71.7615 -222.458
lowerback 13.4387 -2.76528 -4.32568
upperback -4.11968 -4.98977 -5.81316
thorax -12.3106 -2.22513 -2.7952
lowerneck 4.28168 1.46511 -9.21795
upperneck -1.34457 2.01951 15.3432
head -1.36459 0.872381 6.13002
rclavicle -5.38706e-014 -6.32135e-014
rhumerus -39.5935 19.7169 -88.2465
rradius 95.7185
rwrist -57.1963
rhand 8.57432 36.6508
rfingers 7.12502
rthumb 33.7729 9.81693
lclavicle -5.38706e-014 -6.32135e-014
lhumerus -29.9789 -8.0861 93.8488
lradius 110.512
lwrist -32.0736
lhand -0.336295 41.7184
lfingers 7.12502
lthumb 25.2682 430.065
rfemur -30.16 -3.00762 6.19369
rtibia 67.6933
rfoot -15.7901 -12.021
rtoes -21.5795
lfemur -12.237 7.67254 -36.7294
ltibia 33.1633
lfoot -24.1136 4.24112
ltoes -12.5021
1168
root -10.1637 15.751 5.86929 -222.499 73.8774 -226.197
lowerback 12.7349 -2.9102 -3.70098
upperback -4.24534 -5.04688 -5.97014
thorax -12.104 -2.31561 -3.33199
lowerneck 3.40239 2.13855 -8.72634
upperneck -0.578999 2.93188 15.2387
head -1.10287 1.37918 5.99063
rclavicle 1.33558e-015 1.59028e-014
rhumerus -37.9735 22.6988 -88.5467
rradius 95.7661
rwrist -58.4211
rhand 7.83605 36.5352
rfingers 7.12502
rthumb 33.0711 9.54999
lclavicle 1.33558e-015 1.59028e-014
lhumerus -33.423 -7.34974 94.0659
lradius 108.358
lwrist -31.5511
lhand -0.343342 40.4556
lfingers 7.12502
lthumb 25.2615 428.803
rfemur -28.3823 -2.86392 6.54438
rtibia 66.1997
rfoot -15.3961 -12.8757
rtoes -20.4914
lfemur -12.9852 8.32561 -36.0432
ltibia 33.5213
lfoot -24.5485 5.52926
ltoes -12.688
1169
root -10.1552 15.7766 5.91794 -227.403 76.0244 -231.345
lowerback 12.2763 -2.93622 -3.15688
upperback -4.38982 -4.98138 -6.07562
thorax -12.0496 -2.33722 -3.78751
lowerneck 2.46764 2.75233 -8.06452
upperneck 0.272051 3.74532 14.9495
head -0.78188 1.84323 5.77764
rclavicle -1.21259e-014 4.21423e-014
rhumerus -36.7442 24.9386 -88.9859
rradius 95.9011
rwrist -59.3813
rhand 9.41848 36.0596
rfingers 7.12502
rthumb 34.5746 9.40521
lclavicle -1.21259e-014 4.21423e-014
lhumerus -36.917 -6.27522 93.9891
lradius 106.032
lwrist -31.7301
lhand -0.315479 39.7153
lfingers 7.12502
lthumb 25.2882 428.059
rfemur -26.2277 -2.50206 6.85063
rtibia 63.8264
rfoot -14.6605 -13.1567
rtoes -20.6646
lfemur -13.572 9.08102 -35.2751
ltibia 33.9511
lfoot -24.9484 6.85197
ltoes -12.2305
1170
root -10.144 15.7955 5.97402 -234.764 78.1315 -238.796
lowerback 12.2176 -2.80116 -2.85927
upperback -4.63317 -4.76702 -6.03539
thorax -12.3028 -2.2604 -3.96503
lowerneck 1.70422 3.32837 -7.3129
upperneck 1.09126 4.48629 14.4618
head -0.474862 2.26402 5.49784
rclavicle -2.09966e-015 3.97569e-015
rhumerus -36.0759 26.3999 -89.557
rradius 96.2601
rwrist -59.9957
rhand 7.45353 36.0834
rfingers 7.12502
rthumb 32.7073 9.02193
lclavicle -2.09966e-015 3.97569e-015
lhumerus -40.6233 -5.05077 93.8414
lradius 103.644
lwrist -31.8806
lhand -0.408674 39.4588
lfingers 7.12502
lthumb 25.1989 427.815
rfemur -23.7464 -2.01168 7.12724
rtibia 60.6215
rfoot -16.1549 -11.2366
rtoes -27.2336
lfemur -14.0267 9.84077 -34.4265
ltibia 34.5167
lfoot -25.2557 8.43751
ltoes -11.9989
1171
root -10.1329 15.8128 6.03633 -245.538 80.2775 -249.728
lowerback 12.2463 -2.56626 -2.41986
upperback -4.96979 -4.39721 -5.88447
thorax -12.7056 -2.11932 -4.1358
lowerneck 1.05908 3.90423 -6.48051
upperneck 1.92446 5.21379 13.9441
head -0.169051 2.67494 5.20419
rclavicle -2.37548e-014 -4.13472e-014
rhumerus -35.4976 27.792 -90.3187
rradius 96.5504
rwrist -60.5675
rhand 7.34342 35.7486
rfingers 7.12502
rthumb 32.6025 8.66534
lclavicle -2.37548e-014 -4.13472e-014
lhumerus -44.3094 -3.79802 93.5495
lradius 101.019
lwrist -31.9151
lhand -1.01224 40.3606
lfingers 7.12502
lthumb 24.6205 428.797
rfemur -21.6316 -1.39527 7.73412
rtibia 56.6678
rfoot -19.9387 -7.5473
rtoes -29.4425
lfemur -14.7416 10.4401 -33.32
ltibia 35.4407
lfoot -25.4477 10.4964
ltoes -12.4025
